name new_emg_signals
nRows=45
nColumns=7
 
endheader
time	RGLTMED	RRF	RADDLONG	RBF	RTA	RGM
1.0499999999999776	0.7277215821727984	0.8299251719329341	0.7155473057617525	0.8747510232706358	0.996880202935774	0.9893843341333236
1.0599999999999774	0.7226933775403211	0.8247583471968419	0.7141866496982106	0.8739289360237763	0.9956015553719136	0.9880300043947378
1.0699999999999772	0.7178245176918452	0.8196091370555458	0.7127170480643843	0.8730523213648438	0.9941169915442892	0.9866165403869454
1.079999999999977	0.7131197790601913	0.8144833446364832	0.7111412251854281	0.8721219821959044	0.992432217086321	0.9851475152981092
1.0899999999999768	0.7085836355528986	0.8093867019304909	0.7094619275780518	0.8711387745130481	0.9905531366894378	0.9836264576533124
1.0999999999999766	0.7042202599502637	0.8043248655662976	0.7076819245375442	0.8701036135642022	0.9884858447471074	0.9820568547235708
1.1099999999999763	0.7000335256974882	0.7993034126197878	0.7058040085562113	0.8690174797728654	0.9862366155106024	0.980442155905124
1.1199999999999761	0.6960270090728612	0.7943278364542357	0.7038309955552502	0.8678814243930408	0.9838118927845728	0.9787857760458024
1.129999999999976	0.6922039917132792	0.7894035425879994	0.7017657249148039	0.8666965748581161	0.9812182791895928	0.9770910986941086
1.1399999999999757	0.6885674634779827	0.7845358445864492	0.6996110592903217	0.8654641397837707	0.9784625250196872	0.975361479245819
1.1499999999999755	0.6851201256305588	0.7797299599752984	0.697369884207192	0.8641854135843423	0.9755515167260664	0.9736002479623738
1.1599999999999753	0.6818643943183824	0.7749910061726059	0.6950451074297748	0.8628617806623314	0.9724922650626164	0.9718107128342826
1.169999999999975	0.6788024043274272	0.7703239964369227	0.6926396581054429	0.8614947191328577	0.9692918929320142	0.9699961622619696
1.1799999999999748	0.6759360130887194	0.7657338358301014	0.6901564856889276	0.8600858040465208	0.9659576229721436	0.968159867525794
1.1899999999999746	0.6732668049117351	0.7612253171949838	0.6875985586565645	0.8586367100764173	0.9624967649213274	0.9663050850165168
1.1999999999999744	0.670796095418616	0.7568031171502931	0.6849688630238734	0.8571492136374024	0.9589167027991096	0.9644350581971948
1.2099999999999742	0.6685249361530392	0.7524717921066044	0.682270400683085	0.8556251944088529	0.9552248819374488	0.9625530192672984
1.219999999999974	0.6664541193378395	0.7482357743076223	0.6795061875795796	0.8540666362372703	0.9514287958958392	0.960662190500718
1.2299999999999738	0.6645841827579089	0.7440993679013926	0.6766792517471185	0.8524756274018274	0.947535973293262	0.9587657852316284
1.2399999999999736	0.6629154147465636	0.7400667450465352	0.6737926312216203	0.8508543602338584	0.943553964590106	0.9568670084651876
1.2499999999999734	0.6614478592563401	0.7361419420601766	0.6708493718526028	0.849205130088569	0.9394903288543264	0.9549690570930328
1.2599999999999731	0.6601813209970345	0.732328855615901	0.6678525250306996	0.8475303336738104	0.9353526205473336	0.9530751196957166
1.269999999999973	0.6591153706266749	0.7286312390017752	0.6648051453487378	0.845832466747737	0.931148376367112	0.9511883759166372
1.2799999999999727	0.6582493499828325	0.725052698450061	0.6617102882128806	0.8441141212046351	0.9268851021878386	0.949311995394238
1.2899999999999725	0.6575823773429083	0.721596689551625	0.6585710074195048	0.8423779815747063	0.9225702601370468	0.9474491362420656
1.2999999999999723	0.6571133527034564	0.7182665137696398	0.6553903527131293	0.8406268209683815	0.9182112558522872	0.9456029430700624
1.309999999999972	0.6568409630691292	0.7150653150681943	0.6521713673405095	0.8388634964981546	0.9138154259593684	0.943776544545642
1.3199999999999719	0.6567636877445464	0.7119960766724007	0.6489170856156881	0.8370909442112333	0.9093900258137662	0.9419730504997113
1.3299999999999716	0.6568798036240184	0.7090616179767487	0.645630530510333	0.8353121735658832	0.904942217545272	0.9401955485899836
1.3399999999999714	0.6571873904753776	0.7062645916177811	0.642314711283237	0.8335302614844582	0.9004790584441468	0.9384471005403984
1.3499999999999712	0.6576843362149162	0.7036074807266091	0.6389726211622829	0.8317483460168706	0.896007489724726	0.9367307379800728
1.359999999999971	0.6583683421704986	0.7010925963760329	0.6356072350914685	0.8299696196497147	0.8915343257001099	0.9350494579095392
1.3699999999999708	0.659236928330095	0.6987220752367759	0.6322215075547166	0.8281973222967309	0.8870662433986084	0.9334062178256276
1.3799999999999706	0.6602874385727631	0.6964978774567414	0.6288183704872173	0.8264347340059609	0.8826097726495745	0.931803930539332
1.3899999999999704	0.6615170458784754	0.6944217847763006	0.6254007312838116	0.8246851674175182	0.8781712866630923	0.9302454587223228
1.3999999999999702	0.6629227575128304	0.6924953988911623	0.6219714709123285	0.8229519600051335	0.8737569931248562	0.928733609217833
1.40999999999997	0.664501420181827	0.6907201400727528	0.6185334421380366	0.8212384661338524	0.8693729258249094	0.9272711271509004
1.4199999999999697	0.6662497251520493	0.6890972460544198	0.6150894678638051	0.8195480489661228	0.8650249368360646	0.9258606898719008
1.4299999999999695	0.6681642133318269	0.6876277711902262	0.6116423395894071	0.8178840722488236	0.8607186892554308	0.924504900765376
1.4399999999999693	0.6702412803098888	0.6863125858920143	0.6081948159924605	0.8162498920136941	0.8564596505202862	0.9232062829546984
1.449999999999969	0.6724771813499026	0.6851523763490106	0.6047496216325255	0.8146488482235528	0.852253086307842	0.9219672729313936
1.4599999999999689	0.6748680363419343	0.6841476445340521	0.6013094457786984	0.8130842563965679	0.8481040550271383	0.9207902141370984
1.4699999999999687	0.6774098347133004	0.6832987085001788	0.5978769413599297	0.8115593992406135	0.8440174029101609	0.9196773505259414
1.4799999999999685	0.6800984403031272	0.6826057029719443	0.5944547240365233	0.8100775183304563	0.8399977597083021	0.9186308201357004
1.4899999999999682	0.6829295962060312	0.6820685802366641	0.5910453713910507	0.8086418058608186	0.8360495349992634	0.9176526486965296
